<?xml version="1.0" encoding="UTF-8" standalone="no"?>
<svg
   xmlns:dc="http://purl.org/dc/elements/1.1/"
   xmlns:cc="http://creativecommons.org/ns#"
   xmlns:rdf="http://www.w3.org/1999/02/22-rdf-syntax-ns#"
   xmlns:svg="http://www.w3.org/2000/svg"
   xmlns="http://www.w3.org/2000/svg"
   xmlns:sodipodi="http://sodipodi.sourceforge.net/DTD/sodipodi-0.dtd"
   xmlns:inkscape="http://www.inkscape.org/namespaces/inkscape"
   version="1.1"
   x="0px"
   y="0px"
   viewBox="0 0 92.552017 78.639999"
   xml:space="preserve"
   id="svg106"
   sodipodi:docname="noun_letter box_2656472.svg"
   width="92.552017"
   height="78.639999"
   inkscape:version="0.92.4 (5da689c313, 2019-01-14)"><metadata
     id="metadata112"><rdf:RDF><cc:Work
         rdf:about=""><dc:format>image/svg+xml</dc:format><dc:type
           rdf:resource="http://purl.org/dc/dcmitype/StillImage" /><dc:title></dc:title></cc:Work></rdf:RDF></metadata><defs
     id="defs110" /><sodipodi:namedview
     pagecolor="#ffffff"
     bordercolor="#666666"
     borderopacity="1"
     objecttolerance="10"
     gridtolerance="10"
     guidetolerance="10"
     inkscape:pageopacity="0"
     inkscape:pageshadow="2"
     inkscape:window-width="1868"
     inkscape:window-height="1016"
     id="namedview108"
     showgrid="false"
     fit-margin-top="0"
     fit-margin-left="0"
     fit-margin-right="0"
     fit-margin-bottom="0"
     inkscape:zoom="1.888"
     inkscape:cx="46.281938"
     inkscape:cy="26.82"
     inkscape:window-x="52"
     inkscape:window-y="27"
     inkscape:window-maximized="1"
     inkscape:current-layer="svg106" /><g
     id="g100"
     transform="translate(-3.7180623,-10.68)"><g
       id="g12"><g
         id="g10"><g
           id="g8"><g
             id="g6"><g
               id="g4"><path
                 d="M 61.46,33.85 H 41.41 c -1.1,0 -2,-0.9 -2,-2 0,-1.1 0.9,-2 2,-2 h 20.05 c 1.1,0 2,0.9 2,2 0,1.11 -0.9,2 -2,2 z"
                 id="path2"
                 inkscape:connector-curvature="0" /></g></g></g></g></g><g
       id="g24"><g
         id="g22"><g
           id="g20"><g
             id="g18"><g
               id="g16"><path
                 d="M 94.28,75.14 H 29.59 c -1.1,0 -2,-0.9 -2,-2 V 60.4 c 0,-1.1 0.9,-2 2,-2 1.1,0 2,0.9 2,2 V 71.14 H 92.28 V 42.72 c 0,-4.89 -3.98,-8.87 -8.87,-8.87 H 60.98 c -1.1,0 -2,-0.9 -2,-2 0,-1.1 0.9,-2 2,-2 H 83.4 c 7.1,0 12.87,5.77 12.87,12.87 v 30.41 c 0.01,1.11 -0.89,2.01 -1.99,2.01 z"
                 id="path14"
                 inkscape:connector-curvature="0" /></g></g></g></g></g><g
       id="g36"><g
         id="g34"><g
           id="g32"><g
             id="g30"><g
               id="g28"><path
                 d="m 52.28,75.14 c -1.1,0 -2,-0.9 -2,-2 V 42.72 c 0,-4.89 -3.98,-8.87 -8.87,-8.87 h -0.95 c -3.58,0 -6.86,2.22 -8.22,5.54 -0.14,0.67 -0.72,3.53 -0.66,5.75 0.03,1.1 -0.83,2.03 -1.94,2.06 -1.08,0.05 -2.03,-0.83 -2.06,-1.94 -0.09,-3.04 0.75,-6.75 0.79,-6.91 0.02,-0.09 0.05,-0.19 0.08,-0.28 1.91,-4.92 6.74,-8.23 12,-8.23 h 0.95 c 7.1,0 12.87,5.77 12.87,12.87 v 30.41 c 0.01,1.12 -0.88,2.02 -1.99,2.02 z"
                 id="path26"
                 inkscape:connector-curvature="0" /></g></g></g></g></g><g
       id="g48"><g
         id="g46"><g
           id="g44"><g
             id="g42"><g
               id="g40"><path
                 d="m 67.55,52.77 c -0.56,0 -1.13,-0.08 -1.68,-0.24 -1.53,-0.45 -2.8,-1.46 -3.57,-2.86 -0.77,-1.4 -0.95,-3.01 -0.5,-4.55 0.92,-3.16 4.25,-4.99 7.41,-4.06 v 0 c 3.16,0.92 4.98,4.25 4.06,7.41 -0.45,1.53 -1.46,2.8 -2.86,3.57 -0.89,0.49 -1.87,0.73 -2.86,0.73 z m -0.01,-9.95 c -1.72,0 -3.31,1.13 -3.82,2.86 -0.3,1.02 -0.18,2.09 0.33,3.02 0.51,0.93 1.35,1.61 2.37,1.9 1.02,0.3 2.09,0.18 3.02,-0.33 0.93,-0.51 1.61,-1.35 1.9,-2.37 0.61,-2.1 -0.6,-4.31 -2.7,-4.93 -0.36,-0.1 -0.73,-0.15 -1.1,-0.15 z"
                 id="path38"
                 inkscape:connector-curvature="0" /></g></g></g></g></g><g
       id="g60"><g
         id="g58"><g
           id="g56"><g
             id="g54"><g
               id="g52"><path
                 d="m 72.43,89.32 h -9.34 c -1.1,0 -2,-0.9 -2,-2 V 73.16 c 0,-1.1 0.9,-2 2,-2 1.1,0 2,0.9 2,2 v 12.16 h 5.34 V 73.16 c 0,-1.1 0.9,-2 2,-2 1.1,0 2,0.9 2,2 v 14.16 c 0,1.1 -0.9,2 -2,2 z"
                 id="path50"
                 inkscape:connector-curvature="0" /></g></g></g></g></g><g
       id="g74"><g
         id="g72"><g
           id="g70"><g
             id="g68"><g
               id="g66"><g
                 id="g64"><path
                   d="m 19.31,37.56 c -0.34,0 -0.68,-0.09 -0.98,-0.25 L 7.57,31.29 C 4.04,29.32 2.69,24.85 4.56,21.34 c 0.9,-1.7 2.41,-2.94 4.26,-3.49 1.82,-0.54 3.73,-0.34 5.42,0.54 0.94,-1.66 2.45,-2.86 4.26,-3.4 1.85,-0.55 3.79,-0.33 5.46,0.61 3.46,1.94 4.76,6.42 2.88,9.99 l -5.77,10.9 c -0.25,0.48 -0.68,0.83 -1.2,0.98 -0.18,0.06 -0.37,0.09 -0.56,0.09 z m -8.45,-16 c -0.3,0 -0.61,0.04 -0.91,0.13 -0.81,0.24 -1.47,0.78 -1.86,1.52 -0.84,1.58 -0.18,3.68 1.43,4.59 l 8.97,5.02 4.81,-9.08 c 0.88,-1.66 0.29,-3.75 -1.3,-4.63 -0.73,-0.41 -1.57,-0.5 -2.38,-0.27 -0.85,0.25 -1.54,0.83 -1.97,1.63 l -0.84,1.61 c -0.25,0.48 -0.69,0.83 -1.2,0.99 -0.52,0.15 -1.08,0.09 -1.55,-0.17 l -1.59,-0.89 c -0.5,-0.31 -1.05,-0.45 -1.61,-0.45 z"
                   id="path62"
                   inkscape:connector-curvature="0" /></g></g></g></g></g></g><g
       id="g86"><g
         id="g84"><g
           id="g82"><g
             id="g80"><g
               id="g78"><path
                 d="m 24.09,63.73 c -0.31,0 -0.61,-0.07 -0.89,-0.21 -0.48,-0.24 -0.85,-0.66 -1.01,-1.18 L 18.4,50.61 c -1.24,-3.84 0.81,-8.03 4.56,-9.34 1.81,-0.64 3.77,-0.51 5.5,0.34 1.69,0.84 2.97,2.28 3.6,4.08 1.82,-0.58 3.74,-0.43 5.44,0.41 1.72,0.86 3,2.34 3.59,4.17 1.22,3.78 -0.88,7.94 -4.69,9.28 l -11.64,4.06 c -0.23,0.08 -0.45,0.12 -0.67,0.12 z M 25.3,44.87 c -0.34,0 -0.69,0.06 -1.02,0.18 -1.69,0.59 -2.64,2.57 -2.07,4.33 l 3.16,9.79 9.71,-3.39 c 1.77,-0.62 2.76,-2.54 2.2,-4.28 -0.26,-0.79 -0.81,-1.44 -1.56,-1.81 -0.79,-0.39 -1.7,-0.44 -2.55,-0.15 l -1.71,0.6 c -0.51,0.18 -1.07,0.14 -1.55,-0.09 -0.48,-0.24 -0.85,-0.66 -1.02,-1.17 L 28.33,47.15 C 28.05,46.29 27.47,45.6 26.68,45.21 26.23,44.98 25.77,44.87 25.3,44.87 Z"
                 id="path76"
                 inkscape:connector-curvature="0" /></g></g></g></g></g><g
       id="g98"><g
         id="g96"><g
           id="g94"><g
             id="g92"><g
               id="g90"><path
                 d="m 67.45,41.71 c -1.1,0 -2,-0.9 -2,-2 V 12.68 c 0,-1.1 0.9,-2 2,-2 H 82.5 c 1.1,0 2,0.9 2,2 v 8.65 c 0,1.1 -0.9,2 -2,2 H 69.45 v 16.38 c 0,1.1 -0.89,2 -2,2 z m 2,-22.38 H 80.5 V 14.68 H 69.45 Z"
                 id="path88"
                 inkscape:connector-curvature="0" /></g></g></g></g></g></g></svg>